<?xml version="1.0" standalone="no"?>
<!DOCTYPE svg PUBLIC "-//W3C//DTD SVG 20010904//EN"
 "http://www.w3.org/TR/2001/REC-SVG-20010904/DTD/svg10.dtd">
<svg version="1.0" xmlns="http://www.w3.org/2000/svg"
 width="684.000000pt" height="684.000000pt" viewBox="0 0 684.000000 684.000000"
 preserveAspectRatio="xMidYMid meet">

<g transform="translate(0.000000,684.000000) scale(0.100000,-0.100000)"
fill="#000000" stroke="none">
<path d="M3305 6833 c-753 -31 -1440 -287 -2025 -751 -122 -98 -424 -400 -522
-522 -673 -847 -912 -1936 -652 -2973 296 -1178 1203 -2118 2370 -2452 332
-96 576 -129 944 -129 301 0 419 11 680 64 936 188 1757 769 2252 1592 507
846 624 1873 318 2813 -394 1211 -1438 2109 -2691 2314 -206 33 -490 52 -674
44z m381 -93 c1157 -91 2183 -781 2708 -1820 186 -368 298 -746 342 -1160 22
-214 15 -615 -16 -815 -93 -613 -327 -1148 -712 -1629 -108 -134 -366 -391
-503 -499 -475 -377 -996 -603 -1610 -699 -167 -26 -595 -36 -783 -19 -654 62
-1267 311 -1787 727 -130 104 -361 332 -467 460 -350 424 -597 939 -702 1464
-75 375 -86 789 -30 1170 35 242 127 567 224 795 372 873 1094 1547 1988 1856
268 92 497 138 862 172 83 8 367 6 486 -3z"/>
<path d="M5136 4192 c-7 -12 2 -42 13 -42 23 0 56 -139 67 -278 l7 -92 -2082
0 -2082 0 -34 -26 c-47 -36 -117 -60 -213 -75 l-83 -13 3 -35 3 -36 105 -5
105 -5 3 -397 c3 -461 16 -414 -123 -424 l-86 -7 3 -36 3 -36 293 -3 292 -2 0
40 0 40 -52 1 c-78 0 -149 14 -159 30 -5 8 -9 218 -9 467 l0 452 1703 0 c936
0 1861 -3 2055 -7 l352 -6 0 -59 0 -60 -32 7 c-18 3 -54 15 -80 27 l-47 21
-100 -88 c-55 -49 -109 -101 -121 -117 -50 -68 -64 -182 -34 -271 12 -36 38
-68 110 -140 52 -50 101 -93 109 -95 33 -8 105 37 147 92 l43 56 13 -89 c13
-80 16 -90 40 -101 36 -16 121 -24 166 -16 30 6 36 11 36 32 0 15 -7 27 -17
30 -44 14 -63 29 -73 57 -6 19 -10 160 -10 373 l0 344 33 1 c17 1 180 5 361 8
292 5 330 8 339 23 8 12 7 21 -2 32 -12 14 -57 16 -372 16 l-359 0 0 164 c0
187 2 183 -86 223 -59 27 -138 40 -148 25z m33 -712 c46 -23 51 -43 51 -203 0
-87 -4 -115 -19 -146 -21 -40 -83 -101 -104 -101 -30 0 -63 39 -103 124 -50
105 -69 181 -59 234 8 43 41 97 70 111 28 15 119 4 164 -19z"/>
<path d="M1346 4043 c-30 -27 -55 -55 -56 -63 0 -23 105 -131 122 -125 8 3 22
19 32 36 9 16 28 37 42 45 31 21 30 44 -2 75 -14 13 -32 36 -40 52 -8 15 -21
27 -29 27 -7 0 -38 -21 -69 -47z"/>
<path d="M2626 4056 c-18 -18 -42 -38 -54 -45 -25 -13 -30 -49 -8 -57 8 -3 26
-23 40 -44 14 -22 35 -44 46 -50 18 -10 25 -6 48 21 15 18 37 42 50 54 29 29
28 46 -4 76 -14 13 -32 36 -40 52 -19 36 -40 34 -78 -7z"/>
<path d="M4438 4069 c-7 -11 -28 -29 -46 -40 -58 -37 -57 -48 9 -120 l59 -64
55 60 c30 33 54 64 55 68 0 14 -93 117 -107 117 -7 0 -18 -9 -25 -21z"/>
<path d="M5707 4034 l-58 -55 51 -59 c62 -70 75 -77 98 -48 9 12 32 37 50 56
17 19 32 39 32 44 0 6 -18 30 -40 54 -22 24 -40 48 -40 54 0 25 -39 5 -93 -46z"/>
<path d="M4436 3657 c-11 -26 -28 -43 -63 -61 -62 -31 -118 -92 -151 -165 -20
-43 -27 -76 -30 -146 -4 -84 -2 -94 25 -145 62 -119 221 -174 326 -112 41 24
54 46 38 66 -12 14 -17 14 -48 1 -42 -18 -96 -19 -125 -4 -11 6 -26 26 -34 44
-15 37 -19 145 -5 145 5 0 27 -6 49 -14 55 -20 168 -29 217 -19 49 11 68 44
68 117 0 95 -65 187 -166 236 -36 17 -57 35 -69 59 l-17 33 -15 -35z m58 -167
c30 -36 42 -89 29 -133 -8 -30 -12 -32 -57 -35 -27 -2 -62 2 -77 9 -25 10 -29
17 -29 50 0 71 42 139 86 139 12 0 33 -13 48 -30z"/>
<path d="M1397 3647 c-12 -28 -30 -43 -88 -74 -76 -39 -130 -98 -144 -156 -7
-25 -5 -27 21 -27 40 0 126 27 136 43 4 6 8 24 8 38 0 49 81 61 117 18 6 -8
14 -35 18 -62 8 -50 -4 -77 -34 -77 -22 -1 -175 -80 -216 -113 -53 -42 -68
-78 -54 -129 6 -23 26 -57 44 -75 43 -43 82 -43 179 1 l75 34 21 -90 c12 -50
28 -108 37 -129 14 -36 18 -39 53 -39 43 0 150 35 162 53 4 6 8 20 8 31 0 16
-5 17 -44 12 l-43 -7 -13 48 c-9 30 -16 142 -19 300 -7 304 -2 292 -136 350
-26 12 -46 30 -57 52 l-17 33 -14 -35z m61 -454 c-3 -68 -3 -68 -41 -87 -52
-25 -71 -9 -61 51 7 47 10 52 48 81 49 38 57 31 54 -45z"/>
<path d="M5763 3643 c-8 -18 -34 -39 -70 -58 -75 -39 -108 -68 -139 -121 -43
-73 -21 -88 82 -58 48 14 54 18 54 42 0 33 8 45 37 61 27 14 66 6 86 -17 18
-20 27 -89 16 -118 -4 -13 -20 -24 -38 -27 -41 -8 -175 -83 -219 -121 -46 -41
-56 -70 -41 -123 15 -54 67 -103 110 -103 17 0 66 15 109 34 l78 34 25 -102
c38 -153 39 -156 85 -156 45 0 152 35 164 53 4 6 8 20 8 31 0 16 -5 17 -44 12
l-43 -7 -13 48 c-9 32 -14 124 -15 273 -1 137 -6 241 -13 266 -15 51 -43 77
-107 101 -34 13 -56 29 -70 50 -11 18 -22 32 -25 33 -3 0 -11 -12 -17 -27z
m67 -448 c0 -70 -11 -85 -72 -99 -35 -8 -40 3 -32 64 6 44 12 55 43 76 55 37
61 33 61 -41z"/>
<path d="M3547 3588 c-4 -15 1 -28 16 -42 13 -12 28 -34 34 -51 7 -16 49 -127
93 -245 45 -118 86 -222 91 -232 6 -11 21 -18 40 -18 28 0 33 6 79 104 26 58
84 160 128 228 101 157 114 183 110 216 -4 37 -40 48 -124 36 -48 -6 -70 -14
-78 -28 -9 -14 -7 -20 7 -30 54 -33 52 -29 32 -82 -40 -109 -108 -245 -118
-235 -12 12 -77 238 -77 268 0 17 8 24 33 31 20 5 33 15 35 28 2 17 -12 22
-125 47 -155 33 -169 34 -176 5z"/>
<path d="M1700 3580 c-10 -19 -8 -25 18 -49 24 -20 45 -63 90 -186 93 -249
124 -353 110 -378 -6 -11 -44 -67 -85 -123 -40 -56 -78 -116 -83 -134 -13 -46
2 -70 43 -70 40 0 57 15 57 50 0 14 27 67 63 122 35 54 90 155 122 225 97 214
181 375 224 433 22 30 41 62 41 71 0 29 -48 38 -129 24 -95 -16 -120 -49 -53
-70 42 -12 41 -26 -9 -144 -62 -146 -80 -177 -89 -160 -12 21 -76 209 -84 244
-6 28 -3 33 29 48 36 17 44 37 23 54 -21 15 -162 54 -222 60 -49 5 -55 3 -66
-17z"/>
<path d="M2452 3572 c-110 -17 -121 -29 -68 -76 l36 -34 0 -178 c0 -203 8
-235 70 -267 56 -29 167 -20 252 20 75 35 149 98 171 146 18 39 33 304 18 326
-5 8 -22 14 -38 14 -59 0 -180 -15 -193 -23 -22 -14 -1 -41 40 -55 18 -6 37
-20 41 -31 8 -18 3 -205 -6 -249 -6 -28 -74 -65 -119 -65 -26 0 -44 7 -61 25
-29 28 -27 9 -25 256 1 156 -1 197 -12 201 -7 2 -55 -2 -106 -10z"/>
<path d="M3145 3569 c-38 -5 -80 -11 -92 -14 -33 -8 -29 -41 7 -60 16 -8 32
-26 36 -39 3 -13 4 -114 2 -226 -3 -196 -4 -202 -26 -220 -12 -10 -27 -20 -32
-22 -5 -2 -7 -14 -3 -27 6 -22 9 -23 57 -17 34 5 63 17 86 35 63 50 68 68 73
251 5 155 7 166 27 182 39 32 67 33 101 4 39 -33 54 -33 89 3 52 52 52 119 0
146 -16 8 -38 15 -49 15 -17 0 -77 -43 -153 -108 -16 -13 -17 -10 -15 44 2 68
5 67 -108 53z"/>
</g>
</svg>
